<?xml version="1.0" encoding="UTF-8"?>
<!DOCTYPE svg PUBLIC "-//W3C//DTD SVG 1.1//EN" "http://www.w3.org/Graphics/SVG/1.1/DTD/svg11.dtd">
<!-- Creator: CorelDRAW 2018 (64-Bit) -->
<svg xmlns="http://www.w3.org/2000/svg" xml:space="preserve" width="210mm" height="297mm" version="1.1" style="shape-rendering:geometricPrecision; text-rendering:geometricPrecision; image-rendering:optimizeQuality; fill-rule:evenodd; clip-rule:evenodd"
viewBox="0 0 21000 29700"
 xmlns:xlink="http://www.w3.org/1999/xlink">
 <defs>
  <style type="text/css">
   <![CDATA[
    .fil3 {fill:#0F7ABD}
    .fil0 {fill:#1FA1D9}
    .fil2 {fill:#5FBD57}
    .fil1 {fill:#F39431}
    .fil4 {fill:#4D4D4D;fill-rule:nonzero}
    .fil5 {fill:#EBECEC;fill-rule:nonzero}
   ]]>
  </style>
 </defs>
 <g id="Katman_x0020_1">
  <metadata id="CorelCorpID_0Corel-Layer"/>
  <g id="_1436727520736">
   <g>
    <g id="_405491424">
     <path id="_400703096" class="fil0" d="M1003.41 119.48c0,0 -579.15,-208.08 -900.37,258.76 -321.21,466.84 337.87,1365.59 1129.04,1154.47 70.6,-22.02 329.07,-96.41 423.61,-413.55 -348.77,464.99 -1221.1,114.88 -1318.06,-419.08 -42.88,-236.12 -37.66,-636.26 665.78,-580.6z"/>
     <path id="_405491496" class="fil1" d="M972.43 460.87l-175.06 -248.53 -351.95 108.77c0,0 -78.66,80.55 -60.13,307.83l587.14 -168.07z"/>
     <path id="_405491568" class="fil2" d="M398.41 700.33l858.67 -257.82 184.56 250.83 -890.06 299.44c0,0 -127.25,-137.73 -153.17,-292.45z"/>
     <path id="_405491088" class="fil3" d="M620.35 1053.77l948.72 -304.94 -39.68 -74.14 466.76 68.47 -203.47 329.27 -51.78 -81.98 -770.71 251.28c0,0 -212.45,-63.39 -349.84,-187.96z"/>
     <path id="_405491304" class="fil4" d="M1710.53 241.83c-3.57,1.51 -7.71,2.85 -12.43,4.02 -4.73,1.16 -9.8,2.04 -15.16,2.68 -5.37,0.64 -10.73,0.99 -16.16,0.99 -16.27,0 -30.38,-3.61 -42.28,-10.67 -11.9,-7.12 -21.12,-17.61 -27.65,-31.49 -6.47,-13.83 -9.8,-30.97 -9.86,-51.27 0.06,-16.27 2.17,-30.38 6.3,-42.4 4.08,-12.02 9.8,-21.92 17.09,-29.8 7.35,-7.82 15.81,-13.71 25.49,-17.56 9.68,-3.84 20.06,-5.77 31.26,-5.77 9.28,0.06 17.44,0.93 24.55,2.68 7.12,1.69 13.24,3.68 18.49,6.07l10.15 -42c-2.56,-1.45 -6.36,-2.97 -11.37,-4.49 -5.02,-1.57 -11.26,-2.85 -18.67,-3.96 -7.34,-1.11 -15.92,-1.64 -25.6,-1.69 -14.35,0 -28.05,1.93 -41.12,5.71 -13.12,3.8 -25.13,9.45 -36.15,17.04 -11.03,7.58 -20.59,17.08 -28.76,28.4 -8.16,11.37 -14.52,24.6 -19.01,39.66 -4.55,15.1 -6.82,32.07 -6.88,50.91 0,20 2.8,38.26 8.28,54.71 5.48,16.44 13.53,30.62 24.21,42.58 10.67,11.95 23.79,21.11 39.42,27.58 15.57,6.48 33.48,9.8 53.71,9.86 9.28,-0.06 17.73,-0.53 25.43,-1.58 7.76,-0.99 14.46,-2.22 20.29,-3.79 5.78,-1.52 10.33,-3.09 13.77,-4.78l-7.34 -41.64zm146.61 -225.01c-14.12,0.06 -27.07,2.33 -38.96,6.77 -11.84,4.49 -22.46,10.9 -31.84,19.18 -9.33,8.34 -17.27,18.2 -23.85,29.75 -6.54,11.54 -11.5,24.37 -14.93,38.49 -3.45,14.11 -5.2,29.27 -5.2,45.43 0,15.63 1.57,30.45 4.78,44.27 3.16,13.82 7.76,26.48 13.95,37.85 6.12,11.37 13.7,21.23 22.68,29.46 8.98,8.27 19.36,14.63 31.03,19.12 11.66,4.5 24.61,6.77 38.84,6.82 16.8,0 32.14,-2.97 46.07,-8.98 13.95,-5.95 26.02,-14.87 36.22,-26.71 10.21,-11.84 18.08,-26.65 23.68,-44.32 5.55,-17.68 8.4,-38.27 8.46,-61.71 0,-14.4 -1.46,-28.29 -4.37,-41.64 -2.92,-13.36 -7.35,-25.66 -13.18,-37.04 -5.89,-11.31 -13.24,-21.28 -22.11,-29.74 -8.86,-8.45 -19.24,-15.1 -31.08,-19.83 -11.9,-4.72 -25.26,-7.11 -40.19,-7.17zm-1.4 42.34c7.93,0.06 14.99,1.75 21.23,5.13 6.24,3.38 11.66,8.11 16.33,14.18 4.6,6 8.46,13.06 11.49,21.05 3.03,7.99 5.3,16.68 6.82,25.95 1.46,9.34 2.22,18.96 2.22,28.87 0,13.65 -1.23,26.37 -3.74,38.09 -2.44,11.72 -6.12,22.04 -11.02,30.9 -4.89,8.87 -11.02,15.75 -18.31,20.71 -7.29,4.96 -15.75,7.52 -25.37,7.59 -9.57,-0.07 -17.97,-2.63 -25.26,-7.59 -7.34,-5.02 -13.47,-11.9 -18.42,-20.71 -5.01,-8.8 -8.75,-19 -11.26,-30.61 -2.56,-11.61 -3.85,-24.03 -3.85,-37.32 0,-9.92 0.76,-19.61 2.27,-28.99 1.46,-9.33 3.8,-18.08 6.83,-26.19 3.09,-8.16 7,-15.28 11.67,-21.4 4.72,-6.13 10.26,-10.97 16.62,-14.41 6.41,-3.44 13.64,-5.19 21.75,-5.25zm293.94 -29.74c-4.2,-2.16 -9.15,-4.14 -14.87,-6.01 -5.72,-1.81 -12.19,-3.33 -19.36,-4.5 -7.12,-1.1 -14.99,-1.69 -23.51,-1.74 -14.52,0.05 -27.52,2.04 -39.01,6 -11.44,3.91 -21.11,9.4 -29.11,16.45 -7.98,7.06 -14.11,15.34 -18.31,24.79 -4.14,9.45 -6.24,19.71 -6.29,30.79 0.05,11.67 2.73,22.22 8.04,31.78 5.31,9.57 12.83,18.15 22.63,25.79 9.8,7.58 21.52,14.28 35.11,20.11 9.92,4.26 17.96,8.52 24.32,12.84 6.3,4.26 10.91,8.92 13.94,13.88 2.97,5.02 4.49,10.68 4.43,17.03 0,6.7 -1.63,12.53 -4.96,17.56 -3.32,5.01 -8.22,8.98 -14.69,11.78 -6.48,2.8 -14.52,4.2 -24.09,4.26 -7.29,0 -14.46,-0.71 -21.58,-2.05 -7.11,-1.34 -13.83,-3.09 -20.06,-5.36 -6.24,-2.28 -11.73,-4.79 -16.45,-7.65l-10.15 43.4c4.32,2.62 9.92,5.07 16.86,7.35 6.94,2.21 14.64,4.08 23.09,5.47 8.52,1.46 17.21,2.17 26.19,2.23 15.69,-0.06 29.57,-2.11 41.76,-6.07 12.13,-4.03 22.39,-9.68 30.74,-16.98 8.33,-7.23 14.69,-15.79 19.01,-25.65 4.32,-9.86 6.47,-20.71 6.47,-32.49 0.06,-11.78 -2.15,-22.45 -6.59,-32.02 -4.43,-9.62 -11.2,-18.31 -20.41,-26.13 -9.21,-7.81 -20.94,-14.92 -35.29,-21.29 -8.22,-3.73 -15.22,-7.16 -21.11,-10.38 -5.83,-3.21 -10.61,-6.35 -14.29,-9.56 -3.73,-3.21 -6.47,-6.65 -8.22,-10.38 -1.7,-3.74 -2.57,-7.93 -2.57,-12.72 0,-5.13 1.4,-9.91 4.2,-14.4 2.8,-4.49 7.11,-8.17 12.94,-10.97 5.84,-2.86 13.3,-4.32 22.4,-4.37 7.35,0.05 14.06,0.7 20.12,1.87 6.07,1.22 11.44,2.73 16.1,4.49 4.67,1.75 8.58,3.5 11.73,5.19l10.84 -42.34zm212.42 -8.4l-184.42 0 0 44.79 66.14 0 0 224.31 51.79 0 0 -224.31 66.49 0 0 -44.79zm145.22 0l-65.09 0 -76.29 269.1 52.5 0 18.54 -71.04 72.09 0 19.25 71.04 54.23 0 -75.23 -269.1zm-62.99 158.87l16.1 -61.59c1.28,-5.31 2.62,-11.14 4.02,-17.44 1.4,-6.3 2.74,-12.66 4.08,-19.01 1.34,-6.41 2.63,-12.48 3.8,-18.14l1.05 0c1.16,5.54 2.44,11.49 3.78,17.79 1.35,6.35 2.75,12.71 4.2,19.07 1.46,6.42 2.86,12.42 4.26,18.08l16.1 61.24 -57.39 0zm315.29 -150.47c-4.2,-2.16 -9.15,-4.14 -14.87,-6.01 -5.72,-1.81 -12.19,-3.33 -19.36,-4.5 -7.12,-1.1 -14.99,-1.69 -23.51,-1.74 -14.52,0.05 -27.53,2.04 -39.01,6 -11.44,3.91 -21.12,9.4 -29.11,16.45 -7.99,7.06 -14.12,15.34 -18.31,24.79 -4.14,9.45 -6.25,19.71 -6.3,30.79 0.05,11.67 2.74,22.22 8.05,31.78 5.3,9.57 12.82,18.15 22.63,25.79 9.8,7.58 21.52,14.28 35.11,20.11 9.91,4.26 17.96,8.52 24.32,12.84 6.29,4.26 10.9,8.92 13.94,13.88 2.97,5.02 4.49,10.68 4.43,17.03 0,6.7 -1.64,12.53 -4.96,17.56 -3.32,5.01 -8.22,8.98 -14.7,11.78 -6.47,2.8 -14.52,4.2 -24.08,4.26 -7.29,0 -14.47,-0.71 -21.59,-2.05 -7.1,-1.34 -13.82,-3.09 -20.05,-5.36 -6.24,-2.28 -11.73,-4.79 -16.45,-7.65l-10.15 43.4c4.32,2.62 9.92,5.07 16.85,7.35 6.95,2.21 14.64,4.08 23.1,5.47 8.52,1.46 17.21,2.17 26.19,2.23 15.68,-0.06 29.57,-2.11 41.76,-6.07 12.13,-4.03 22.39,-9.68 30.73,-16.98 8.34,-7.23 14.69,-15.79 19.01,-25.65 4.32,-9.86 6.48,-20.71 6.48,-32.49 0.06,-11.78 -2.16,-22.45 -6.6,-32.02 -4.43,-9.62 -11.19,-18.31 -20.41,-26.13 -9.21,-7.81 -20.94,-14.92 -35.28,-21.29 -8.22,-3.73 -15.23,-7.16 -21.12,-10.38 -5.83,-3.21 -10.61,-6.35 -14.28,-9.56 -3.74,-3.21 -6.48,-6.65 -8.23,-10.38 -1.69,-3.74 -2.56,-7.93 -2.56,-12.72 0,-5.13 1.39,-9.91 4.19,-14.4 2.81,-4.49 7.12,-8.17 12.95,-10.97 5.84,-2.86 13.3,-4.32 22.4,-4.37 7.35,0.05 14.06,0.7 20.12,1.87 6.07,1.22 11.43,2.73 16.1,4.49 4.67,1.75 8.57,3.5 11.72,5.19l10.85 -42.34z"/>
    </g>
    <g id="_404082040">
     <path id="_405491208" class="fil0" d="M1003.41 1791.42c0,0 -579.15,-208.08 -900.37,258.76 -321.21,466.84 337.87,1365.6 1129.04,1154.48 70.6,-22.02 329.07,-96.41 423.61,-413.56 -348.77,465 -1221.1,114.88 -1318.06,-419.08 -42.88,-236.12 -37.66,-636.26 665.78,-580.6z"/>
     <path id="_405491328" class="fil1" d="M972.43 2132.81l-175.06 -248.53 -351.95 108.77c0,0 -78.66,80.55 -60.13,307.83l587.14 -168.07z"/>
     <path id="_404631224" class="fil2" d="M398.41 2372.27l858.67 -257.82 184.56 250.83 -890.06 299.44c0,0 -127.25,-137.73 -153.17,-292.45z"/>
     <path id="_404082064" class="fil3" d="M620.35 2725.71l948.72 -304.94 -39.68 -74.14 466.76 68.47 -203.47 329.27 -51.78 -81.98 -770.71 251.28c0,0 -212.45,-63.39 -349.84,-187.96z"/>
     <path id="_404082424" class="fil4" d="M1710.53 1913.77c-3.57,1.51 -7.71,2.85 -12.43,4.02 -4.73,1.16 -9.8,2.04 -15.16,2.68 -5.37,0.64 -10.73,0.99 -16.16,0.99 -16.27,0 -30.38,-3.61 -42.28,-10.67 -11.9,-7.12 -21.12,-17.61 -27.65,-31.49 -6.47,-13.83 -9.8,-30.97 -9.86,-51.27 0.06,-16.27 2.17,-30.38 6.3,-42.4 4.08,-12.02 9.8,-21.92 17.09,-29.8 7.35,-7.82 15.81,-13.71 25.49,-17.56 9.68,-3.84 20.06,-5.77 31.26,-5.77 9.28,0.06 17.44,0.93 24.55,2.68 7.12,1.69 13.24,3.68 18.49,6.07l10.15 -42c-2.56,-1.45 -6.36,-2.97 -11.37,-4.49 -5.02,-1.57 -11.26,-2.85 -18.67,-3.96 -7.34,-1.11 -15.92,-1.64 -25.6,-1.69 -14.35,0 -28.05,1.93 -41.12,5.71 -13.12,3.8 -25.13,9.45 -36.15,17.04 -11.03,7.58 -20.59,17.08 -28.76,28.4 -8.16,11.37 -14.52,24.6 -19.01,39.66 -4.55,15.1 -6.82,32.07 -6.88,50.91 0,20 2.8,38.26 8.28,54.71 5.48,16.44 13.53,30.62 24.21,42.58 10.67,11.95 23.79,21.11 39.42,27.58 15.57,6.48 33.48,9.8 53.71,9.86 9.28,-0.06 17.73,-0.53 25.43,-1.58 7.76,-0.99 14.46,-2.22 20.29,-3.79 5.78,-1.52 10.33,-3.09 13.77,-4.78l-7.34 -41.64zm146.61 -225.01c-14.12,0.06 -27.07,2.33 -38.96,6.77 -11.84,4.49 -22.46,10.9 -31.84,19.18 -9.33,8.34 -17.27,18.2 -23.85,29.75 -6.54,11.54 -11.5,24.37 -14.93,38.49 -3.45,14.11 -5.2,29.27 -5.2,45.43 0,15.63 1.57,30.45 4.78,44.27 3.16,13.82 7.76,26.48 13.95,37.85 6.12,11.37 13.7,21.23 22.68,29.46 8.98,8.27 19.36,14.63 31.03,19.12 11.66,4.5 24.61,6.77 38.84,6.82 16.8,0 32.14,-2.97 46.07,-8.98 13.95,-5.95 26.02,-14.87 36.22,-26.71 10.21,-11.84 18.08,-26.65 23.68,-44.32 5.55,-17.68 8.4,-38.27 8.46,-61.71 0,-14.4 -1.46,-28.29 -4.37,-41.64 -2.92,-13.36 -7.35,-25.66 -13.18,-37.04 -5.89,-11.31 -13.24,-21.28 -22.11,-29.74 -8.86,-8.45 -19.24,-15.1 -31.08,-19.83 -11.9,-4.72 -25.26,-7.11 -40.19,-7.17zm-1.4 42.34c7.93,0.06 14.99,1.75 21.23,5.13 6.24,3.38 11.66,8.11 16.33,14.18 4.6,6 8.46,13.06 11.49,21.05 3.03,7.99 5.3,16.68 6.82,25.95 1.46,9.34 2.22,18.96 2.22,28.87 0,13.65 -1.23,26.37 -3.74,38.09 -2.44,11.72 -6.12,22.04 -11.02,30.9 -4.89,8.87 -11.02,15.75 -18.31,20.71 -7.29,4.96 -15.75,7.52 -25.37,7.59 -9.57,-0.07 -17.97,-2.63 -25.26,-7.59 -7.34,-5.02 -13.47,-11.9 -18.42,-20.71 -5.01,-8.8 -8.75,-19 -11.26,-30.61 -2.56,-11.61 -3.85,-24.03 -3.85,-37.32 0,-9.92 0.76,-19.61 2.27,-28.99 1.46,-9.33 3.8,-18.08 6.83,-26.19 3.09,-8.16 7,-15.28 11.67,-21.4 4.72,-6.13 10.26,-10.97 16.62,-14.41 6.41,-3.44 13.64,-5.19 21.75,-5.25zm293.94 -29.74c-4.2,-2.16 -9.15,-4.14 -14.87,-6.01 -5.72,-1.81 -12.19,-3.33 -19.36,-4.5 -7.12,-1.1 -14.99,-1.69 -23.51,-1.74 -14.52,0.05 -27.52,2.04 -39.01,6 -11.44,3.91 -21.11,9.4 -29.11,16.45 -7.98,7.06 -14.11,15.34 -18.31,24.79 -4.14,9.45 -6.24,19.71 -6.29,30.79 0.05,11.67 2.73,22.22 8.04,31.78 5.31,9.57 12.83,18.15 22.63,25.79 9.8,7.58 21.52,14.28 35.11,20.11 9.92,4.26 17.96,8.52 24.32,12.84 6.3,4.26 10.91,8.92 13.94,13.88 2.97,5.02 4.49,10.68 4.43,17.03 0,6.7 -1.63,12.53 -4.96,17.56 -3.32,5.01 -8.22,8.98 -14.69,11.78 -6.48,2.8 -14.52,4.2 -24.09,4.26 -7.29,0 -14.46,-0.71 -21.58,-2.05 -7.11,-1.34 -13.83,-3.09 -20.06,-5.36 -6.24,-2.28 -11.73,-4.79 -16.45,-7.65l-10.15 43.4c4.32,2.62 9.92,5.07 16.86,7.35 6.94,2.21 14.64,4.08 23.09,5.47 8.52,1.46 17.21,2.17 26.19,2.23 15.69,-0.06 29.57,-2.11 41.76,-6.07 12.13,-4.03 22.39,-9.68 30.74,-16.98 8.33,-7.23 14.69,-15.79 19.01,-25.65 4.32,-9.86 6.47,-20.71 6.47,-32.49 0.06,-11.78 -2.15,-22.45 -6.59,-32.02 -4.43,-9.62 -11.2,-18.31 -20.41,-26.13 -9.21,-7.81 -20.94,-14.92 -35.29,-21.29 -8.22,-3.73 -15.22,-7.16 -21.11,-10.38 -5.83,-3.21 -10.61,-6.35 -14.29,-9.56 -3.73,-3.21 -6.47,-6.65 -8.22,-10.38 -1.7,-3.74 -2.57,-7.93 -2.57,-12.72 0,-5.13 1.4,-9.91 4.2,-14.4 2.8,-4.49 7.11,-8.17 12.94,-10.97 5.84,-2.86 13.3,-4.32 22.4,-4.37 7.35,0.05 14.06,0.7 20.12,1.87 6.07,1.22 11.44,2.73 16.1,4.49 4.67,1.75 8.58,3.5 11.73,5.19l10.84 -42.34zm212.42 -8.4l-184.42 0 0 44.79 66.14 0 0 224.31 51.79 0 0 -224.31 66.49 0 0 -44.79zm145.22 0l-65.09 0 -76.29 269.1 52.5 0 18.54 -71.04 72.09 0 19.25 71.04 54.23 0 -75.23 -269.1zm-62.99 158.87l16.1 -61.59c1.28,-5.31 2.62,-11.14 4.02,-17.44 1.4,-6.3 2.74,-12.66 4.08,-19.01 1.34,-6.41 2.63,-12.48 3.8,-18.14l1.05 0c1.16,5.54 2.44,11.49 3.78,17.79 1.35,6.35 2.75,12.71 4.2,19.07 1.46,6.42 2.86,12.42 4.26,18.08l16.1 61.24 -57.39 0zm315.29 -150.47c-4.2,-2.16 -9.15,-4.14 -14.87,-6.01 -5.72,-1.81 -12.19,-3.33 -19.36,-4.5 -7.12,-1.1 -14.99,-1.69 -23.51,-1.74 -14.52,0.05 -27.53,2.04 -39.01,6 -11.44,3.91 -21.12,9.4 -29.11,16.45 -7.99,7.06 -14.12,15.34 -18.31,24.79 -4.14,9.45 -6.25,19.71 -6.3,30.79 0.05,11.67 2.74,22.22 8.05,31.78 5.3,9.57 12.82,18.15 22.63,25.79 9.8,7.58 21.52,14.28 35.11,20.11 9.91,4.26 17.96,8.52 24.32,12.84 6.29,4.26 10.9,8.92 13.94,13.88 2.97,5.02 4.49,10.68 4.43,17.03 0,6.7 -1.64,12.53 -4.96,17.56 -3.32,5.01 -8.22,8.98 -14.7,11.78 -6.47,2.8 -14.52,4.2 -24.08,4.26 -7.29,0 -14.47,-0.71 -21.59,-2.05 -7.1,-1.34 -13.82,-3.09 -20.05,-5.36 -6.24,-2.28 -11.73,-4.79 -16.45,-7.65l-10.15 43.4c4.32,2.62 9.92,5.07 16.85,7.35 6.95,2.21 14.64,4.08 23.1,5.47 8.52,1.46 17.21,2.17 26.19,2.23 15.68,-0.06 29.57,-2.11 41.76,-6.07 12.13,-4.03 22.39,-9.68 30.73,-16.98 8.34,-7.23 14.69,-15.79 19.01,-25.65 4.32,-9.86 6.48,-20.71 6.48,-32.49 0.06,-11.78 -2.16,-22.45 -6.6,-32.02 -4.43,-9.62 -11.19,-18.31 -20.41,-26.13 -9.21,-7.81 -20.94,-14.92 -35.28,-21.29 -8.22,-3.73 -15.23,-7.16 -21.12,-10.38 -5.83,-3.21 -10.61,-6.35 -14.28,-9.56 -3.74,-3.21 -6.48,-6.65 -8.23,-10.38 -1.69,-3.74 -2.56,-7.93 -2.56,-12.72 0,-5.13 1.39,-9.91 4.19,-14.4 2.81,-4.49 7.12,-8.17 12.95,-10.97 5.84,-2.86 13.3,-4.32 22.4,-4.37 7.35,0.05 14.06,0.7 20.12,1.87 6.07,1.22 11.43,2.73 16.1,4.49 4.67,1.75 8.57,3.5 11.72,5.19l10.85 -42.34z"/>
    </g>
    <g id="_404631032">
     <path id="_404081944" class="fil0" d="M1003.41 3453.92c0,0 -579.15,-208.08 -900.37,258.76 -321.21,466.83 337.87,1365.59 1129.04,1154.47 70.6,-22.02 329.07,-96.41 423.61,-413.56 -348.77,465 -1221.1,114.88 -1318.06,-419.07 -42.88,-236.12 -37.66,-636.26 665.78,-580.6z"/>
     <path id="_404082520" class="fil1" d="M972.43 3795.31l-175.06 -248.53 -351.95 108.77c0,0 -78.66,80.55 -60.13,307.83l587.14 -168.07z"/>
     <path id="_404631344" class="fil2" d="M398.41 4034.77l858.67 -257.82 184.56 250.83 -890.06 299.43c0,0 -127.25,-137.73 -153.17,-292.44z"/>
     <path id="_404630888" class="fil3" d="M620.35 4388.2l948.72 -304.93 -39.68 -74.14 466.76 68.47 -203.47 329.26 -51.78 -81.98 -770.71 251.28c0,0 -212.45,-63.39 -349.84,-187.96z"/>
     <path id="_404630840" class="fil5" d="M1710.53 3576.27c-3.57,1.51 -7.71,2.85 -12.43,4.02 -4.73,1.16 -9.8,2.04 -15.16,2.68 -5.37,0.64 -10.73,0.99 -16.16,0.99 -16.27,0 -30.38,-3.61 -42.28,-10.67 -11.9,-7.12 -21.12,-17.61 -27.65,-31.49 -6.47,-13.83 -9.8,-30.97 -9.86,-51.27 0.06,-16.27 2.17,-30.38 6.3,-42.4 4.08,-12.02 9.8,-21.92 17.09,-29.8 7.35,-7.82 15.81,-13.71 25.49,-17.56 9.68,-3.84 20.06,-5.77 31.26,-5.77 9.28,0.06 17.44,0.93 24.55,2.68 7.12,1.69 13.24,3.68 18.49,6.07l10.15 -42c-2.56,-1.45 -6.36,-2.97 -11.37,-4.49 -5.02,-1.57 -11.26,-2.85 -18.67,-3.96 -7.34,-1.11 -15.92,-1.64 -25.6,-1.69 -14.35,0 -28.05,1.93 -41.12,5.71 -13.12,3.8 -25.13,9.45 -36.15,17.04 -11.03,7.58 -20.59,17.08 -28.76,28.4 -8.16,11.37 -14.52,24.6 -19.01,39.66 -4.55,15.1 -6.82,32.07 -6.88,50.91 0,20 2.8,38.26 8.28,54.71 5.48,16.44 13.53,30.62 24.21,42.58 10.67,11.95 23.79,21.11 39.42,27.58 15.57,6.48 33.48,9.8 53.71,9.86 9.28,-0.06 17.73,-0.53 25.43,-1.58 7.76,-0.99 14.46,-2.22 20.29,-3.79 5.78,-1.52 10.33,-3.09 13.77,-4.78l-7.34 -41.64zm146.61 -225.01c-14.12,0.06 -27.07,2.33 -38.96,6.77 -11.84,4.49 -22.46,10.9 -31.84,19.18 -9.33,8.34 -17.27,18.2 -23.85,29.75 -6.54,11.54 -11.5,24.37 -14.93,38.49 -3.45,14.11 -5.2,29.27 -5.2,45.43 0,15.63 1.57,30.45 4.78,44.27 3.16,13.82 7.76,26.48 13.95,37.85 6.12,11.37 13.7,21.23 22.68,29.46 8.98,8.27 19.36,14.63 31.03,19.12 11.66,4.5 24.61,6.77 38.84,6.82 16.8,0 32.14,-2.97 46.07,-8.98 13.95,-5.95 26.02,-14.87 36.22,-26.71 10.21,-11.84 18.08,-26.65 23.68,-44.32 5.55,-17.68 8.4,-38.27 8.46,-61.71 0,-14.4 -1.46,-28.29 -4.37,-41.64 -2.92,-13.36 -7.35,-25.66 -13.18,-37.04 -5.89,-11.31 -13.24,-21.28 -22.11,-29.74 -8.86,-8.45 -19.24,-15.1 -31.08,-19.83 -11.9,-4.72 -25.26,-7.11 -40.19,-7.17zm-1.4 42.34c7.93,0.06 14.99,1.75 21.23,5.13 6.24,3.38 11.66,8.11 16.33,14.18 4.6,6 8.46,13.06 11.49,21.05 3.03,7.99 5.3,16.68 6.82,25.95 1.46,9.34 2.22,18.96 2.22,28.87 0,13.65 -1.23,26.37 -3.74,38.09 -2.44,11.72 -6.12,22.04 -11.02,30.9 -4.89,8.87 -11.02,15.75 -18.31,20.71 -7.29,4.96 -15.75,7.52 -25.37,7.59 -9.57,-0.07 -17.97,-2.63 -25.26,-7.59 -7.34,-5.02 -13.47,-11.9 -18.42,-20.71 -5.01,-8.8 -8.75,-19 -11.26,-30.61 -2.56,-11.61 -3.85,-24.03 -3.85,-37.32 0,-9.92 0.76,-19.61 2.27,-28.99 1.46,-9.33 3.8,-18.08 6.83,-26.19 3.09,-8.16 7,-15.28 11.67,-21.4 4.72,-6.13 10.26,-10.97 16.62,-14.41 6.41,-3.44 13.64,-5.19 21.75,-5.25zm293.94 -29.74c-4.2,-2.16 -9.15,-4.14 -14.87,-6.01 -5.72,-1.81 -12.19,-3.33 -19.36,-4.5 -7.12,-1.1 -14.99,-1.69 -23.51,-1.74 -14.52,0.05 -27.52,2.04 -39.01,6 -11.44,3.91 -21.11,9.4 -29.11,16.45 -7.98,7.06 -14.11,15.34 -18.31,24.79 -4.14,9.45 -6.24,19.71 -6.29,30.79 0.05,11.67 2.73,22.22 8.04,31.78 5.31,9.57 12.83,18.15 22.63,25.79 9.8,7.58 21.52,14.28 35.11,20.11 9.92,4.26 17.96,8.52 24.32,12.84 6.3,4.26 10.91,8.92 13.94,13.88 2.97,5.02 4.49,10.68 4.43,17.03 0,6.7 -1.63,12.53 -4.96,17.56 -3.32,5.01 -8.22,8.98 -14.69,11.78 -6.48,2.8 -14.52,4.2 -24.09,4.26 -7.29,0 -14.46,-0.71 -21.58,-2.05 -7.11,-1.34 -13.83,-3.09 -20.06,-5.36 -6.24,-2.28 -11.73,-4.79 -16.45,-7.65l-10.15 43.4c4.32,2.62 9.92,5.07 16.86,7.35 6.94,2.21 14.64,4.08 23.09,5.47 8.52,1.46 17.21,2.17 26.19,2.23 15.69,-0.06 29.57,-2.11 41.76,-6.07 12.13,-4.03 22.39,-9.68 30.74,-16.98 8.33,-7.23 14.69,-15.79 19.01,-25.65 4.32,-9.86 6.47,-20.71 6.47,-32.49 0.06,-11.78 -2.15,-22.45 -6.59,-32.02 -4.43,-9.62 -11.2,-18.31 -20.41,-26.13 -9.21,-7.81 -20.94,-14.92 -35.29,-21.29 -8.22,-3.73 -15.22,-7.16 -21.11,-10.38 -5.83,-3.21 -10.61,-6.35 -14.29,-9.56 -3.73,-3.21 -6.47,-6.65 -8.22,-10.38 -1.7,-3.74 -2.57,-7.93 -2.57,-12.72 0,-5.13 1.4,-9.91 4.2,-14.4 2.8,-4.49 7.11,-8.17 12.94,-10.97 5.84,-2.86 13.3,-4.32 22.4,-4.37 7.35,0.05 14.06,0.7 20.12,1.87 6.07,1.22 11.44,2.73 16.1,4.49 4.67,1.75 8.58,3.5 11.73,5.19l10.84 -42.34zm212.42 -8.4l-184.42 0 0 44.79 66.14 0 0 224.31 51.79 0 0 -224.31 66.49 0 0 -44.79zm145.22 0l-65.09 0 -76.29 269.1 52.5 0 18.54 -71.04 72.09 0 19.25 71.04 54.23 0 -75.23 -269.1zm-62.99 158.87l16.1 -61.59c1.28,-5.31 2.62,-11.14 4.02,-17.44 1.4,-6.3 2.74,-12.66 4.08,-19.01 1.34,-6.41 2.63,-12.48 3.8,-18.14l1.05 0c1.16,5.54 2.44,11.49 3.78,17.79 1.35,6.35 2.75,12.71 4.2,19.07 1.46,6.42 2.86,12.42 4.26,18.08l16.1 61.24 -57.39 0zm315.29 -150.47c-4.2,-2.16 -9.15,-4.14 -14.87,-6.01 -5.72,-1.81 -12.19,-3.33 -19.36,-4.5 -7.12,-1.1 -14.99,-1.69 -23.51,-1.74 -14.52,0.05 -27.53,2.04 -39.01,6 -11.44,3.91 -21.12,9.4 -29.11,16.45 -7.99,7.06 -14.12,15.34 -18.31,24.79 -4.14,9.45 -6.25,19.71 -6.3,30.79 0.05,11.67 2.74,22.22 8.05,31.78 5.3,9.57 12.82,18.15 22.63,25.79 9.8,7.58 21.52,14.28 35.11,20.11 9.91,4.26 17.96,8.52 24.32,12.84 6.29,4.26 10.9,8.92 13.94,13.88 2.97,5.02 4.49,10.68 4.43,17.03 0,6.7 -1.64,12.53 -4.96,17.56 -3.32,5.01 -8.22,8.98 -14.7,11.78 -6.47,2.8 -14.52,4.2 -24.08,4.26 -7.29,0 -14.47,-0.71 -21.59,-2.05 -7.1,-1.34 -13.82,-3.09 -20.05,-5.36 -6.24,-2.28 -11.73,-4.79 -16.45,-7.65l-10.15 43.4c4.32,2.62 9.92,5.07 16.85,7.35 6.95,2.21 14.64,4.08 23.1,5.47 8.52,1.46 17.21,2.17 26.19,2.23 15.68,-0.06 29.57,-2.11 41.76,-6.07 12.13,-4.03 22.39,-9.68 30.73,-16.98 8.34,-7.23 14.69,-15.79 19.01,-25.65 4.32,-9.86 6.48,-20.71 6.48,-32.49 0.06,-11.78 -2.16,-22.45 -6.6,-32.02 -4.43,-9.62 -11.19,-18.31 -20.41,-26.13 -9.21,-7.81 -20.94,-14.92 -35.28,-21.29 -8.22,-3.73 -15.23,-7.16 -21.12,-10.38 -5.83,-3.21 -10.61,-6.35 -14.28,-9.56 -3.74,-3.21 -6.48,-6.65 -8.23,-10.38 -1.69,-3.74 -2.56,-7.93 -2.56,-12.72 0,-5.13 1.39,-9.91 4.19,-14.4 2.81,-4.49 7.12,-8.17 12.95,-10.97 5.84,-2.86 13.3,-4.32 22.4,-4.37 7.35,0.05 14.06,0.7 20.12,1.87 6.07,1.22 11.43,2.73 16.1,4.49 4.67,1.75 8.57,3.5 11.72,5.19l10.85 -42.34z"/>
    </g>
   </g>
   <path class="fil4" d="M1701.08 599.31l-120.08 0 0 -0.68 19.39 -20.35c59.19,-59.14 93.89,-100.24 93.89,-149.51 0,-31.92 -18.37,-70.64 -69.4,-70.64 -25.85,0 -47.96,10.89 -63.61,25.12l7.83 14.28c12.58,-10.54 31.29,-21.71 51.7,-21.71 40.14,0 52.05,27.84 52.05,56.01 0,43.49 -30.62,80.85 -96.27,146.79l-23.13 24.77 0 12.93 147.63 0 0 -17.01zm111.24 21.09c48.98,0 80.28,-43.88 80.28,-134.02 0,-86.75 -31.64,-128.25 -75.86,-128.25 -44.22,0 -80.96,39.46 -80.96,132.67 0,88.44 34.35,129.6 76.54,129.6zm1.02 -17.35c-34.7,0 -55.79,-45.58 -55.79,-114.97 0,-69.74 24.49,-112.6 57.15,-112.6 39.8,0 56.46,46.94 56.46,112.6 0,63.61 -16.32,114.97 -57.82,114.97zm203.41 13.27l0 -254.11 -18.7 0 -48.99 28.92 5.44 15.99 40.82 -24.5 0.68 0 0 233.7 20.75 0zm226.22 -123.82c-7.15,52.04 -34.7,99.33 -86.41,107.15 -10.88,1.7 -20.07,2.72 -26.87,2.04l0 18.37c7.82,0.34 19.39,-0.68 31.97,-3.06 60.55,-11.91 102.4,-70.07 102.4,-153.08 0,-67.01 -31.64,-105.79 -75.52,-105.79 -49.67,0 -78.92,43.2 -78.92,89.13 0,40.82 25.17,76.53 70.07,76.53 26.2,0 47.29,-11.56 62.25,-31.29l1.03 0zm-56.81 -117.36c36.74,0 56.81,35.04 56.81,88.44 0,16.33 -24.84,43.21 -58.85,43.21 -31.64,0 -53.07,-24.16 -53.07,-60.9 0,-40.48 22.11,-70.75 55.11,-70.75z"/>
   <path class="fil4" d="M1698.09 2278.37l-120.08 0 0 -0.68 19.39 -20.35c59.19,-59.14 93.89,-100.24 93.89,-149.51 0,-31.92 -18.37,-70.64 -69.4,-70.64 -25.85,0 -47.96,10.89 -63.61,25.12l7.83 14.28c12.58,-10.54 31.29,-21.71 51.7,-21.71 40.14,0 52.05,27.84 52.05,56.01 0,43.49 -30.62,80.85 -96.27,146.79l-23.13 24.77 0 12.93 147.63 0 0 -17.01zm111.24 21.09c48.98,0 80.28,-43.88 80.28,-134.02 0,-86.75 -31.64,-128.25 -75.86,-128.25 -44.22,0 -80.96,39.46 -80.96,132.67 0,88.44 34.35,129.6 76.54,129.6zm1.02 -17.35c-34.7,0 -55.79,-45.58 -55.79,-114.97 0,-69.74 24.49,-112.6 57.15,-112.6 39.8,0 56.46,46.94 56.46,112.6 0,63.61 -16.32,114.97 -57.82,114.97zm203.41 13.27l0 -254.11 -18.7 0 -48.99 28.92 5.44 15.99 40.82 -24.5 0.68 0 0 233.7 20.75 0zm226.22 -123.82c-7.15,52.04 -34.7,99.33 -86.41,107.15 -10.88,1.7 -20.07,2.72 -26.87,2.04l0 18.37c7.82,0.34 19.39,-0.68 31.97,-3.06 60.55,-11.91 102.4,-70.07 102.4,-153.08 0,-67.01 -31.64,-105.79 -75.52,-105.79 -49.67,0 -78.92,43.2 -78.92,89.13 0,40.82 25.17,76.53 70.07,76.53 26.2,0 47.29,-11.56 62.25,-31.29l1.03 0zm-56.81 -117.36c36.74,0 56.81,35.04 56.81,88.44 0,16.33 -24.84,43.21 -58.85,43.21 -31.64,0 -53.07,-24.16 -53.07,-60.9 0,-40.48 22.11,-70.75 55.11,-70.75z"/>
   <path class="fil5" d="M1710.55 3930.67l-120.08 0 0 -0.68 19.39 -20.35c59.19,-59.14 93.89,-100.24 93.89,-149.51 0,-31.92 -18.37,-70.64 -69.4,-70.64 -25.85,0 -47.96,10.89 -63.61,25.12l7.83 14.28c12.58,-10.54 31.29,-21.71 51.7,-21.71 40.14,0 52.05,27.84 52.05,56.01 0,43.49 -30.62,80.85 -96.27,146.79l-23.13 24.77 0 12.93 147.63 0 0 -17.01zm111.24 21.09c48.98,0 80.28,-43.88 80.28,-134.02 0,-86.75 -31.64,-128.25 -75.86,-128.25 -44.22,0 -80.96,39.46 -80.96,132.67 0,88.44 34.35,129.6 76.54,129.6zm1.02 -17.35c-34.7,0 -55.79,-45.58 -55.79,-114.97 0,-69.74 24.49,-112.6 57.15,-112.6 39.8,0 56.46,46.94 56.46,112.6 0,63.61 -16.32,114.97 -57.82,114.97zm203.41 13.27l0 -254.11 -18.7 0 -48.99 28.92 5.44 15.99 40.82 -24.5 0.68 0 0 233.7 20.75 0zm226.22 -123.82c-7.15,52.04 -34.7,99.33 -86.41,107.15 -10.88,1.7 -20.07,2.72 -26.87,2.04l0 18.37c7.82,0.34 19.39,-0.68 31.97,-3.06 60.55,-11.91 102.4,-70.07 102.4,-153.08 0,-67.01 -31.64,-105.79 -75.52,-105.79 -49.67,0 -78.92,43.2 -78.92,89.13 0,40.82 25.17,76.53 70.07,76.53 26.2,0 47.29,-11.56 62.25,-31.29l1.03 0zm-56.81 -117.36c36.74,0 56.81,35.04 56.81,88.44 0,16.33 -24.84,43.21 -58.85,43.21 -31.64,0 -53.07,-24.16 -53.07,-60.9 0,-40.48 22.11,-70.75 55.11,-70.75z"/>
  </g>
 </g>
</svg>
